#!OML:ASF X:\für Bonn\!DataBase\2005_08_10_Bjorn_Final\c3d\bjorn.ASF
:FULLY-SPECIFIED
:DEGREES
93
root 1.6748 18.3778 4.27025 -180.526 -10.7737 -179.179
lowerback -1.35383 -0.57009 7.41176
upperback 10.5216 -2.488 0.84439
thorax 11.937 -0.960486 -3.58908
lowerneck -0.844368 5.85867 1.30483
upperneck 20.8863 7.70893 -6.96866
head 6.81886 2.70567 -2.05376
rclavicle 6.16232e-015 -1.35174e-014
rhumerus -29.0025 -16.9537 -82.4445
rradius 30.3801
rwrist 4.59444
rhand -5.83598 8.56119
rfingers 7.12502
rthumb 19.99 -20.4306
lclavicle 6.16232e-015 -1.35174e-014
lhumerus -25.3651 -23.1167 90.9539
lradius 48.4777
lwrist -14.8176
lhand -21.2688 -11.5102
lfingers 7.12502
lthumb 5.1148 18.4081
rfemur -27.7372 -4.72435 18.8108
rtibia 48.095
rfoot -15.617 14.9589
rtoes -7.41807
lfemur 0.422928 5.60512 -16.5139
ltibia 36.0472
lfoot -27.0867 -2.07115
ltoes -11.6063
94
root 1.6849 18.3868 4.21319 -180.414 -10.8785 -179.247
lowerback -1.37379 -0.599955 7.59165
upperback 10.5099 -2.55305 0.915255
thorax 11.9305 -0.98011 -3.61943
lowerneck -0.82117 5.93251 1.33975
upperneck 20.8211 7.83347 -7.07748
head 6.80538 2.7661 -2.08627
rclavicle 1.33186e-014 -1.27222e-014
rhumerus -28.9981 -17.2503 -82.4088
rradius 30.5233
rwrist 4.49359
rhand -6.09902 8.58647
rfingers 7.12502
rthumb 19.7372 -20.4315
lclavicle 1.33186e-014 -1.27222e-014
lhumerus -25.4433 -22.9257 91.1834
lradius 48.3904
lwrist -14.6398
lhand -21.6392 -11.6754
lfingers 7.12502
lthumb 4.75716 18.2512
rfemur -27.5806 -4.89243 18.8021
rtibia 48.0033
rfoot -15.7206 15.0606
rtoes -7.22209
lfemur 0.394184 5.31226 -16.5744
ltibia 36.2016
lfoot -26.85 -1.93823
ltoes -11.7938
95
root 1.69578 18.3981 4.15772 -180.3 -10.9593 -179.288
lowerback -1.40552 -0.623053 7.76439
upperback 10.5217 -2.62018 1.01378
thorax 11.9605 -1.00355 -3.61736
lowerneck -0.868958 6.01484 1.37586
upperneck 20.7907 7.98338 -7.24713
head 6.8196 2.83093 -2.13512
rclavicle 8.94531e-015 4.37326e-014
rhumerus -28.926 -17.4968 -82.3736
rradius 30.6629
rwrist 4.33456
rhand -6.40437 8.62283
rfingers 7.12502
rthumb 19.4436 -20.425
lclavicle 8.94531e-015 4.37326e-014
lhumerus -25.4646 -22.7228 91.4144
lradius 48.3092
lwrist -14.4983
lhand -22.0121 -11.7943
lfingers 7.12502
lthumb 4.39712 18.14
rfemur -27.4259 -4.96642 18.8242
rtibia 47.8803
rfoot -15.8028 15.098
rtoes -7.01757
lfemur 0.32813 5.07358 -16.5908
ltibia 36.393
lfoot -26.5646 -1.83561
ltoes -12.106
96
root 1.70705 18.4113 4.10459 -180.171 -11.0166 -179.358
lowerback -1.42859 -0.624143 7.92586
upperback 10.5318 -2.65082 1.08224
thorax 11.9861 -1.00801 -3.63725
lowerneck -0.878493 6.06838 1.44722
upperneck 20.7116 8.08827 -7.39745
head 6.80989 2.88277 -2.18719
rclavicle -5.00937e-014 -4.77083e-015
rhumerus -28.9183 -17.698 -82.3663
rradius 30.9364
rwrist 4.08331
rhand -6.68881 8.58984
rfingers 7.12502
rthumb 19.1701 -20.4854
lclavicle -5.00937e-014 -4.77083e-015
lhumerus -25.4799 -22.563 91.6169
lradius 48.2238
lwrist -14.3512
lhand -22.31 -11.9502
lfingers 7.12502
lthumb 4.1094 17.9899
rfemur -27.2793 -5.03478 18.8174
rtibia 47.7358
rfoot -15.9159 15.1382
rtoes -7.10448
lfemur 0.22668 4.80576 -16.6538
ltibia 36.6098
lfoot -26.2321 -1.72352
ltoes -12.3376
97
root 1.71753 18.4259 4.05172 -180.049 -11.0541 -179.428
lowerback -1.45926 -0.616303 8.09207
upperback 10.5523 -2.6719 1.14048
thorax 12.0296 -1.00625 -3.67045
lowerneck -0.85139 6.12738 1.56477
upperneck 20.6104 8.20036 -7.57503
head 6.79021 2.94141 -2.25606
rclavicle -1.23246e-014 3.18055e-014
rhumerus -28.95 -17.8252 -82.3911
rradius 31.3457
rwrist 3.74394
rhand -6.95263 8.47459
rfingers 7.12502
rthumb 18.9164 -20.6256
lclavicle -1.23246e-014 3.18055e-014
lhumerus -25.4899 -22.4383 91.8023
lradius 48.1613
lwrist -14.1793
lhand -22.5697 -12.0819
lfingers 7.12502
lthumb 3.8586 17.8629
rfemur -27.1101 -5.09026 18.8128
rtibia 47.5588
rfoot -16.0035 15.156
rtoes -7.09559
lfemur 0.110259 4.59162 -16.7034
ltibia 36.8607
lfoot -25.8748 -1.66221
ltoes -12.4402
98
root 1.72805 18.4422 4.00033 -179.914 -11.0817 -179.499
lowerback -1.47588 -0.613026 8.2496
upperback 10.5543 -2.69288 1.19916
thorax 12.0424 -1.00591 -3.6971
lowerneck -0.779534 6.19084 1.66279
upperneck 20.499 8.31267 -7.73588
head 6.75828 3.00056 -2.31762
rclavicle -1.86858e-014 4.77083e-015
rhumerus -28.9798 -17.9306 -82.4052
rradius 31.7383
rwrist 3.40148
rhand -7.19447 8.34857
rfingers 7.12502
rthumb 18.6838 -20.7742
lclavicle -1.86858e-014 4.77083e-015
lhumerus -25.5494 -22.317 92.0008
lradius 48.1271
lwrist -13.9736
lhand -22.8248 -12.1828
lfingers 7.12502
lthumb 3.61232 17.7664
rfemur -26.9558 -5.11645 18.8043
rtibia 47.3583
rfoot -16.0816 15.1728
rtoes -7.09325
lfemur -0.0506601 4.42409 -16.7376
ltibia 37.1379
lfoot -25.4882 -1.65621
ltoes -12.6202
99
root 1.73815 18.46 3.95073 -179.771 -11.0826 -179.599
lowerback -1.49079 -0.585294 8.38876
upperback 10.5754 -2.68117 1.24071
thorax 12.0804 -0.989838 -3.72918
lowerneck -0.739995 6.23403 1.80132
upperneck 20.3788 8.40192 -7.91654
head 6.73069 3.05142 -2.39266
rclavicle -9.93923e-015 2.62396e-014
rhumerus -28.9329 -18.1503 -82.412
rradius 32.006
rwrist 3.15765
rhand -7.40998 8.33161
rfingers 7.12502
rthumb 18.4765 -20.8109
lclavicle -9.93923e-015 2.62396e-014
lhumerus -25.5557 -22.2077 92.1681
lradius 48.095
lwrist -13.8389
lhand -22.977 -12.3073
lfingers 7.12502
lthumb 3.46533 17.6443
rfemur -26.7985 -5.14513 18.7625
rtibia 47.1325
rfoot -16.1619 15.1995
rtoes -7.2219
lfemur -0.247211 4.26471 -16.8095
ltibia 37.4502
lfoot -25.0825 -1.66597
ltoes -12.5521
100
root 1.74701 18.4791 3.90186 -179.622 -11.066 -179.698
lowerback -1.49835 -0.562643 8.52973
upperback 10.5793 -2.67171 1.28201
thorax 12.0932 -0.975079 -3.76186
lowerneck -0.640114 6.29326 1.93432
upperneck 20.2342 8.50912 -8.09955
head 6.68588 3.11206 -2.46806
rclavicle 1.23246e-014 -9.54166e-015
rhumerus -28.8855 -18.3164 -82.4119
rradius 32.2184
rwrist 2.93614
rhand -7.58417 8.30054
rfingers 7.12502
rthumb 18.3089 -20.8578
lclavicle 1.23246e-014 -9.54166e-015
lhumerus -25.6264 -22.1002 92.34
lradius 48.0934
lwrist -13.7057
lhand -23.1141 -12.4345
lfingers 7.12502
lthumb 3.33289 17.5192
rfemur -26.6455 -5.17824 18.718
rtibia 46.8862
rfoot -16.2028 15.2494
rtoes -7.14828
lfemur -0.471676 4.09697 -16.8886
ltibia 37.7902
lfoot -24.6532 -1.6265
ltoes -12.6275
101
root 1.75646 18.4991 3.85398 -179.472 -11.0296 -179.799
lowerback -1.51511 -0.520841 8.66471
upperback 10.6033 -2.64201 1.32426
thorax 12.1386 -0.950584 -3.78896
lowerneck -0.548373 6.33974 2.05208
upperneck 20.0588 8.6001 -8.2707
head 6.63082 3.16748 -2.53769
rclavicle 1.90833e-014 2.3059e-014
rhumerus -28.7993 -18.5434 -82.3922
rradius 32.3871
rwrist 2.81643
rhand -7.69623 8.37936
rfingers 7.12502
rthumb 18.2011 -20.7891
lclavicle 1.90833e-014 2.3059e-014
lhumerus -25.6564 -22.0433 92.4947
lradius 48.0872
lwrist -13.5947
lhand -23.2162 -12.5549
lfingers 7.12502
lthumb 3.23429 17.4003
rfemur -26.4911 -5.17511 18.6738
rtibia 46.6252
rfoot -16.2362 15.2804
rtoes -7.15662
lfemur -0.716062 3.98629 -16.955
ltibia 38.157
lfoot -24.1808 -1.59955
ltoes -12.7733
102
root 1.76591 18.5194 3.80701 -179.312 -10.9998 -179.913
lowerback -1.51983 -0.49095 8.77127
upperback 10.604 -2.6186 1.36573
thorax 12.1479 -0.932344 -3.80053
lowerneck -0.436191 6.39941 2.17621
upperneck 19.9046 8.70529 -8.43946
head 6.58043 3.22877 -2.60751
rclavicle -4.01545e-014 3.18055e-014
rhumerus -28.7444 -18.6583 -82.383
rradius 32.5425
rwrist 2.63661
rhand -7.77268 8.50973
rfingers 7.12502
rthumb 18.1276 -20.6655
lclavicle -4.01545e-014 3.18055e-014
lhumerus -25.7609 -21.9774 92.6683
lradius 48.1119
lwrist -13.4978
lhand -23.3104 -12.663
lfingers 7.12502
lthumb 3.14332 17.2936
rfemur -26.3458 -5.17581 18.6155
rtibia 46.3529
rfoot -16.2687 15.2982
rtoes -7.17079
lfemur -0.984752 3.86363 -17.0338
ltibia 38.5503
lfoot -23.673 -1.55854
ltoes -12.8076
103
root 1.77492 18.5405 3.76178 -179.148 -10.9714 -180.04
lowerback -1.50857 -0.460317 8.85007
upperback 10.6036 -2.59366 1.42905
thorax 12.1474 -0.918611 -3.77217
lowerneck -0.313528 6.46026 2.21641
upperneck 19.709 8.81276 -8.58496
head 6.51083 3.28961 -2.65602
rclavicle -1.63003e-014 -5.08889e-014
rhumerus -28.6643 -18.7023 -82.3378
rradius 32.6762
rwrist 2.44965
rhand -7.86951 8.63071
rfingers 7.12502
rthumb 18.0344 -20.5532
lclavicle -1.63003e-014 -5.08889e-014
lhumerus -25.8733 -21.9874 92.9043
lradius 48.1489
lwrist -13.3172
lhand -23.4831 -12.691
lfingers 7.12502
lthumb 2.97658 17.268
rfemur -26.2045 -5.18991 18.5402
rtibia 46.0737
rfoot -16.2891 15.3134
rtoes -7.12674
lfemur -1.2744 3.70722 -17.1421
ltibia 38.9702
lfoot -23.1262 -1.46036
ltoes -12.816
104
root 1.7841 18.5611 3.71768 -178.984 -10.9093 -180.169
lowerback -1.49611 -0.412488 8.92435
upperback 10.6097 -2.54594 1.48808
thorax 12.1569 -0.893847 -3.74365
lowerneck -0.224252 6.5231 2.28771
upperneck 19.5434 8.92455 -8.73883
head 6.459 3.35236 -2.71119
rclavicle 5.56597e-015 -1.90833e-014
rhumerus -28.5665 -18.7235 -82.302
rradius 32.7891
rwrist 2.28755
rhand -7.9426 8.75728
rfingers 7.12502
rthumb 17.9641 -20.4331
lclavicle 5.56597e-015 -1.90833e-014
lhumerus -25.9822 -22.0523 93.1218
lradius 48.1965
lwrist -13.1997
lhand -23.5889 -12.7232
lfingers 7.12502
lthumb 2.87441 17.2372
rfemur -26.0745 -5.19913 18.4645
rtibia 45.7916
rfoot -16.2547 15.3805
rtoes -6.92576
lfemur -1.57753 3.57301 -17.2585
ltibia 39.4218
lfoot -22.5625 -1.26919
ltoes -13.2193
105
root 1.79309 18.5818 3.67488 -178.824 -10.8481 -180.283
lowerback -1.46335 -0.360489 9.01117
upperback 10.6086 -2.49095 1.55354
thorax 12.1465 -0.865827 -3.71334
lowerneck -0.125942 6.58086 2.37287
upperneck 19.3644 9.0319 -8.92031
head 6.40319 3.41288 -2.77809
rclavicle -1.31198e-014 -1.51076e-014
rhumerus -28.477 -18.6824 -82.2608
rradius 32.8883
rwrist 2.09063
rhand -8.00639 8.8945
rfingers 7.12502
rthumb 17.9027 -20.3015
lclavicle -1.31198e-014 -1.51076e-014
lhumerus -26.1153 -22.1463 93.337
lradius 48.2587
lwrist -13.1594
lhand -23.6631 -12.8367
lfingers 7.12502
lthumb 2.80275 17.1247
rfemur -25.9444 -5.18302 18.4021
rtibia 45.5065
rfoot -16.2406 15.4118
rtoes -6.81498
lfemur -1.90349 3.44411 -17.3589
ltibia 39.9074
lfoot -21.9623 -1.10393
ltoes -13.4606
106
root 1.80154 18.6023 3.63373 -178.662 -10.7715 -180.41
lowerback -1.43261 -0.296574 9.11795
upperback 10.6172 -2.42132 1.60078
thorax 12.1504 -0.826994 -3.71267
lowerneck -0.0690301 6.64227 2.40343
upperneck 19.1943 9.13918 -9.027
head 6.352 3.47494 -2.81065
rclavicle 0 1.03368e-014
rhumerus -28.3602 -18.5952 -82.2461
rradius 32.9733
rwrist 1.88716
rhand -8.05289 8.97419
rfingers 7.12502
rthumb 17.8579 -20.2259
lclavicle 0 1.03368e-014
lhumerus -26.2362 -22.3249 93.5393
lradius 48.3379
lwrist -13.0536
lhand -23.7001 -12.9658
lfingers 7.12502
lthumb 2.76696 16.996
rfemur -25.8144 -5.20448 18.3264
rtibia 45.2228
rfoot -16.2121 15.4869
rtoes -6.69977
lfemur -2.257 3.39432 -17.463
ltibia 40.4299
lfoot -21.3435 -0.86451
ltoes -14.3858
107
root 1.8098 18.622 3.59466 -178.506 -10.6951 -180.538
lowerback -1.38411 -0.228169 9.23007
upperback 10.6295 -2.34389 1.63947
thorax 12.1487 -0.783805 -3.72295
lowerneck 0.0098928 6.70328 2.48095
upperneck 18.9967 9.24942 -9.1798
head 6.29285 3.54076 -2.86611
rclavicle 7.15625e-015 -3.4191e-014
rhumerus -28.2243 -18.4508 -82.2563
rradius 33.0416
rwrist 1.59226
rhand -8.10558 9.06862
rfingers 7.12502
rthumb 17.8072 -20.1361
lclavicle 7.15625e-015 -3.4191e-014
lhumerus -26.3783 -22.5377 93.7242
lradius 48.4474
lwrist -12.9533
lhand -23.7252 -13.1123
lfingers 7.12502
lthumb 2.74278 16.8498
rfemur -25.683 -5.21429 18.2502
rtibia 44.936
rfoot -16.2239 15.5242
rtoes -6.89242
lfemur -2.62305 3.28625 -17.5896
ltibia 40.9838
lfoot -20.6989 -0.586579
ltoes -15.1525
